<svg width="41" height="39" viewBox="0 0 41 39" fill="none" xmlns="http://www.w3.org/2000/svg">
<path d="M18.6441 1.6217C19.3159 -0.0512393 21.6841 -0.0512388 22.3559 1.6217L26.3684 11.6136C26.6545 12.326 27.3231 12.8118 28.0891 12.8637L38.8319 13.5922C40.6305 13.7141 41.3624 15.9665 39.9789 17.1224L31.716 24.0261C31.1268 24.5184 30.8714 25.3044 31.0587 26.0489L33.6857 36.491C34.1255 38.2393 32.2095 39.6313 30.6827 38.6728L21.5634 32.9476C20.9132 32.5394 20.0868 32.5394 19.4366 32.9476L10.3173 38.6728C8.79049 39.6313 6.87451 38.2393 7.31434 36.491L9.94128 26.0489C10.1286 25.3044 9.87318 24.5184 9.28405 24.0261L1.02109 17.1224C-0.362366 15.9665 0.369473 13.7141 2.16813 13.5922L12.9109 12.8637C13.6769 12.8118 14.3455 12.326 14.6316 11.6136L18.6441 1.6217Z" fill="#931158"/>
</svg>
