<svg width="15" height="15" viewBox="0 0 15 15" fill="none" xmlns="http://www.w3.org/2000/svg">
<path d="M6.10302 3.5897C6.63262 2.22331 6.89742 1.54012 7.32764 1.44543C7.44076 1.42053 7.55768 1.42053 7.6708 1.44543C8.10102 1.54012 8.36582 2.22331 8.89542 3.5897C9.1966 4.36674 9.34719 4.75526 9.62896 5.01951C9.70799 5.09363 9.79379 5.15965 9.88514 5.21662C10.2108 5.41977 10.6174 5.45745 11.4305 5.53281C12.8069 5.66039 13.4952 5.72417 13.7053 6.13028C13.7489 6.21439 13.7784 6.30545 13.7929 6.39969C13.8626 6.8547 13.3566 7.33107 12.3447 8.28382L12.0637 8.54839C11.5906 8.99382 11.3541 9.21654 11.2173 9.49448C11.1352 9.66121 11.0802 9.84076 11.0544 10.026C11.0114 10.3347 11.0807 10.6578 11.2192 11.304L11.2687 11.5349C11.5171 12.6937 11.6414 13.2731 11.4863 13.5579C11.347 13.8137 11.0904 13.9775 10.807 13.9915C10.4915 14.0071 10.0469 13.6322 9.15778 12.8824C8.57198 12.3884 8.27908 12.1414 7.95392 12.0449C7.65677 11.9567 7.34167 11.9567 7.04452 12.0449C6.71936 12.1414 6.42646 12.3884 5.84065 12.8824C4.9515 13.6322 4.50693 14.0071 4.19141 13.9915C3.908 13.9775 3.65144 13.8137 3.51215 13.5579C3.35709 13.2731 3.4813 12.6937 3.72974 11.5349L3.77924 11.304C3.91777 10.6578 3.98704 10.3347 3.94405 10.026C3.91827 9.84076 3.86324 9.66121 3.78117 9.49448C3.64435 9.21654 3.40781 8.99382 2.93473 8.54839L2.65373 8.28382C1.64183 7.33107 1.13588 6.8547 1.20556 6.39969C1.21999 6.30545 1.24958 6.21439 1.29311 6.13028C1.50328 5.72417 2.19151 5.66039 3.56796 5.53281C4.38107 5.45745 4.78762 5.41977 5.1133 5.21662C5.20465 5.15965 5.29044 5.09363 5.36948 5.01951C5.65125 4.75526 5.80184 4.36674 6.10302 3.5897Z" fill="#FFCC00" stroke="#FFCC00"/>
</svg>
